<svg xmlns="http://www.w3.org/2000/svg" x="0px" y="0px"
	 viewBox="0 0 480 320" fill="#dddddd" style="enable-background:new 0 0 480 320;" xml:space="preserve">
<g>
	<rect x="264" y="144" width="32" height="16"/>
	<rect x="96" y="144" width="32" height="16"/>
	<path d="M459.9,125.9l-73.4-12.2c-2.8-0.5-5.2-2.5-6.2-5.2l-33-92.6C343.9,6.4,334.9,0,324.7,0H59.3C49.1,0,40.1,6.4,36.6,15.9
		L2.3,112.1c-1.5,4.3-2.3,8.9-2.3,13.4V248c0,13.2,10.8,24,24,24h8.6c4.4,30.6,32.7,51.8,63.3,47.4c24.6-3.5,43.9-22.8,47.4-47.4
		h193.3c4.4,30.6,32.7,51.8,63.3,47.4c24.6-3.5,43.9-22.8,47.4-47.4h8.6c13.2,0,24-10.8,24-24v-98.5
		C480,137.8,471.5,127.8,459.9,125.9z M127.2,272c-1,5-3,9.7-5.8,14l-5-5L105,292.3l5,5c-4.3,2.8-9,4.8-14,5.8V296H80v7.2
		c-5-1-9.7-3-14-5.8l5-5L59.7,281l-5,5c-2.8-4.3-4.8-9-5.8-14H56v-16h-7.2c1-5,3-9.7,5.8-14l5,5L71,235.7l-5-5c4.3-2.8,9-4.8,14-5.8
		v7.2h16v-7.2c5,1,9.7,3,14,5.8l-5,5l11.4,11.4l5-5c2.8,4.3,4.8,9,5.8,14H120v16H127.2z M232,112h-88V48h88V112z M431.2,272
		c-1,5-3,9.7-5.8,14l-5-5L409,292.3l5,5c-4.3,2.8-9,4.8-14,5.8V296h-16v7.2c-5-1-9.7-3-14-5.8l5-5L363.7,281l-5,5
		c-2.8-4.3-4.8-9-5.8-14h7.2v-16h-7.2c1-5,3-9.7,5.8-14l5,5l11.4-11.4l-5-5c4.3-2.8,9-4.8,14-5.8v7.2h16v-7.2c5,1,9.7,3,14,5.8l-5,5
		l11.4,11.4l5-5c2.8,4.3,4.8,9,5.8,14H424v16H431.2z M464,208h-24v16h24v24c0,4.4-3.6,8-8,8h-8.6c-4.4-30.6-32.7-51.8-63.3-47.4
		c-24.6,3.5-43.9,22.8-47.4,47.4H248V128h96c2.7,0,5.1-1.3,6.6-3.5c1.5-2.2,1.8-5,0.8-7.4l-32-80c-1.2-3-4.2-5-7.4-5H80.2
		c-3.5,0-6.6,2.3-7.7,5.7l-24.2,80c-0.7,2.4-0.2,5.1,1.3,7.1c1.5,2,3.9,3.2,6.4,3.2h176v128h-88.6c-4.4-30.6-32.7-51.8-63.3-47.4
		c-24.6,3.5-43.9,22.8-47.4,47.4H24c-4.4,0-8-3.6-8-8v-48h24v-16H16v-16h24v-16H16v-26.5c0-2.7,0.5-5.5,1.4-8.1l34.4-96.2
		c1.2-3.2,4.2-5.3,7.5-5.3h265.4c3.4,0,6.4,2.1,7.5,5.3l33,92.6c3,8.2,10.1,14.2,18.7,15.6l73.4,12.2c1.7,0.3,3.2,1.1,4.3,2.3H440
		c-13.3,0-24,10.8-24,24c0,13.2,10.7,24,24,24h24V208z M248,112V48h58.6l25.6,64H248z M128,48v64H66.8l19.3-64H128z M464,176h-24
		c-4.4,0-8-3.6-8-8s3.6-8,8-8h24V176z"/>
	<path d="M88,240c-13.3,0-24,10.7-24,24s10.7,24,24,24s24-10.7,24-24S101.3,240,88,240z M88,272c-4.4,0-8-3.6-8-8s3.6-8,8-8
		s8,3.6,8,8S92.4,272,88,272z"/>
	<path d="M392,240c-13.3,0-24,10.7-24,24s10.7,24,24,24s24-10.7,24-24S405.3,240,392,240z M392,272c-4.4,0-8-3.6-8-8s3.6-8,8-8
		s8,3.6,8,8S396.4,272,392,272z"/>
</g>
</svg>
